<?xml version="1.0" standalone="no"?>
<!DOCTYPE svg PUBLIC "-//W3C//DTD SVG 20010904//EN"
 "http://www.w3.org/TR/2001/REC-SVG-20010904/DTD/svg10.dtd">
<svg version="1.0" xmlns="http://www.w3.org/2000/svg"
 width="915.000000pt" height="915.000000pt" viewBox="0 0 915.000000 915.000000"
 preserveAspectRatio="xMidYMid meet">
<metadata>
Created by potrace 1.14, written by Peter Selinger 2001-2017
</metadata>
<g transform="translate(0.000000,915.000000) scale(0.100000,-0.100000)"
fill="#000000" stroke="none">
<path d="M1740 8555 c-153 -26 -257 -58 -376 -116 -73 -35 -190 -106 -220
-134 -6 -5 -32 -28 -58 -49 -215 -178 -396 -488 -432 -741 -3 -22 -10 -60 -15
-85 -11 -59 -10 -5630 1 -5695 5 -27 12 -68 15 -89 4 -22 16 -69 27 -105 68
-228 162 -385 328 -551 113 -114 207 -183 340 -250 103 -52 104 -53 209 -85
184 -56 31 -54 3061 -54 2689 0 2799 1 2895 19 219 41 392 114 555 234 80 60
87 66 145 126 50 51 62 64 108 119 96 116 217 365 242 501 4 19 13 67 20 105
11 57 13 603 11 2905 0 1559 -4 2846 -8 2860 -4 14 -15 58 -24 99 -9 41 -27
104 -41 140 -30 83 -114 251 -125 251 -4 0 -8 5 -8 11 0 30 -162 216 -265 304
-127 108 -385 235 -532 261 -15 3 -46 10 -68 17 -62 18 -5681 20 -5785 2z"/>
</g>
</svg>
